<?xml version="1.0" encoding="utf-8"?>
<!-- Generator: Adobe Illustrator 24.1.3, SVG Export Plug-In . SVG Version: 6.00 Build 0)  -->
<svg version="1.1" id="Слой_1" xmlns="http://www.w3.org/2000/svg" xmlns:xlink="http://www.w3.org/1999/xlink" x="0px" y="0px"
	 viewBox="0 0 24 24" enable-background="new 0 0 24 24" xml:space="preserve">
<path fill="#BF6B6B" d="M24,11.8c-0.3,0.2-0.8,0.3-1.1,0.6c0-0.2,0-0.4,0-0.6c0-1.1-0.2-2.2-0.4-3.2c0.2,0.4,0.3,0.8,0.4,1.3
	c0.1,0.3,0.2,0.7,0.2,1c0,0.2,0.1,0.5,0,0.7c0,0,0.1,0.1,0.2,0.2c0.2-0.4,0.2-0.7,0.2-1.2c0-0.3-0.2-0.7-0.1-1.1
	c0.1-0.5-0.1-0.8-0.2-1.2c-0.1-0.3-0.2-0.7-0.4-1c-0.1-0.3-0.3-0.6-0.5-0.9c-0.2-0.4-0.5-0.9-1-1.2c-0.4-0.2-0.7-0.5-1-0.8
	c-0.3-0.3-0.6-0.6-0.8-0.9C18.9,2.7,18,2,17,1.5l-1-0.4c-0.3-0.2-0.6-0.2-1-0.4C14.1,0.2,13,0,11.9,0c-0.5,0-0.9,0.2-1.4,0.2
	c-0.1,0-0.2,0.1-0.4,0.1C4.6,1.1,0.3,5.9,0.2,11.7c0,0,0,0,0-0.1c-0.2,0-0.2,0.1-0.2,0.1c0,1.2,0,2.3,0.4,3.5
	c0.3,1.1,0.9,2.1,1.5,3.1c0.2,0.3,0.5,0.6,0.7,0.9s0.5,0.6,0.7,0.9c0.2,0.2,0.5,0.7,0.7,1s0.6,0.7,0.9,0.9c1.4,1,3,1.2,4.5,1.8
	c0.4,0.2,0.9,0.2,1.3,0.2h0.6c0.2,0,0.4-0.1,0.6-0.1c1.3-0.2,2.6-0.5,3.7-1.1c0.3-0.1,0.6-0.2,0.8-0.4c0.3-0.2,0.6-0.3,0.8-0.5
	c0.6-0.3,1.1-0.7,1.8-1.1c0.3-0.2,0.6-0.4,0.9-0.7c0.2-0.3,0.6-0.6,0.8-0.8c0.9-0.9,1.6-2,2.2-3.1c0.5-1.1,0.4-2.5,0.6-3.6
	C23.8,12.4,23.7,12,24,11.8z M0.4,14.2c0-0.2-0.1-0.6-0.2-0.8c-0.1-0.2-0.1-0.5,0-0.8c0,0,0-0.1,0-0.1c0.1,1,0.2,1.9,0.5,2.8
	C0.6,14.9,0.5,14.5,0.4,14.2z M4.3,20.7C4.3,20.7,4.3,20.6,4.3,20.7c0.3,0.1,0.5,0.4,0.8,0.6C4.8,21.2,4.4,21.2,4.3,20.7z M6.9,22.4
	c-0.2-0.1-0.4-0.4-0.7-0.2c-0.4,0.2-0.5-0.1-0.6-0.4c-0.1-0.1-0.2-0.2-0.2-0.2c0,0,0,0,0,0c0.6,0.4,1.3,0.8,2,1.1
	C7.2,22.4,7,22.4,6.9,22.4z M11.8,23.4h-1.1c-0.4-0.1-0.8-0.2-1.1-0.2c-0.1,0-0.1-0.1-0.2-0.1c0.8,0.2,1.5,0.2,2.3,0.2
	c0.2,0,0.5,0,0.7,0C12.1,23.3,12,23.4,11.8,23.4z M22.5,16.9c-0.3,0.4-0.7,0.8-1.1,1.2c-0.5,0.7-1.1,1.3-1.8,1.8
	c1.6-1.7,2.7-3.8,3.1-6.3v0.1c0.2,0.6-0.1,1.1,0.1,1.6C23,16,22.7,16.5,22.5,16.9z"/>
<path fill="#BF6B6B" d="M4.9,3c0.2-0.1,0.5-0.2,0.7-0.3c0.2-0.1,0.4-0.2,0.6-0.3c0.3-0.2,0.6-0.4,1-0.7c0,0,0.1-0.2,0.2,0.1
	C7.5,2,7.5,2.1,7.4,2C7.1,1.7,7.2,2.3,7.1,2.3C6.6,2.5,6.2,2.8,5.7,2.8c-0.2,0-0.2,0.2-0.2,0.3C5.4,3.2,5.2,3.3,4.9,3z"/>
<path fill="#BF6B6B" d="M1.9,6.1C1.8,6.4,1.7,6.6,1.6,6.8C1.5,7.2,1.5,7.4,1.4,7.7C1.3,8,1.1,8.3,0.7,8.6c0.2-0.4,0.3-0.8,0.4-1.2
	c0.2-0.4,0.3-0.8,0.5-1.2C1.6,6.1,1.6,5.9,1.9,6.1z"/>
<path fill="#BF6B6B" d="M0.3,10.4c0.1-0.3,0.1-0.6,0.1-0.9c0.1-0.2,0.2-0.6,0.2-0.8c0,0.3,0.1,0.6,0,0.9C0.6,9.8,0.6,10.1,0.3,10.4z
	"/>
<path fill="#BF6B6B" d="M4.9,3C5,3.7,4.6,3.8,4.2,4C4.4,3.5,4.6,3.2,4.9,3z"/>
<path fill="#BF6B6B" d="M1.9,6.1c0.1-0.2,0.2-0.5,0.4-0.7c0.2-0.2,0.4-0.3,0.5-0.6c0,0.5-0.3,0.7-0.6,1C2,5.9,1.9,6,1.9,6.1z"/>
<path fill="#FFFFFF" d="M17.5,12.2l0.9-0.6l-1.7-1c0.1,0,0.3-0.1,0.4,0c0.4,0.1,0.5,0.4,0.9,0.4c0.2,0.1,0.5,0.2,0.7,0.2
	c-0.2,0-0.2-0.4-0.4-0.4s-0.4-0.2-0.6-0.2c-0.4-0.2-0.8-0.2-1.1-0.5c-0.3-0.2-0.7-0.2-1-0.3c-0.2-0.1-0.4-0.1-0.6-0.2l-2.3-1.4
	c0,0,0,0,0,0c-0.3-0.4-0.6-0.7-1-1c-0.4-0.2-0.8-0.5-1.1-1C10.3,5.9,10,5.8,9.7,5.6C9.1,5.1,8.4,5.3,8,4.8H8L7.6,4.5L7.4,5.1
	C7.4,5.6,7.5,6.2,7.5,6.7L7.4,7.3c-0.1,0.2-0.2,0.6,0,0.8C7.2,8.7,7.3,9.2,7.1,9.9c0,0.4,0,0.9-0.1,1.3C7.1,11.6,7,12,7,12.3
	c-0.1,0.7-0.1,1.5-0.2,2.2c-0.1,0.9-0.2,1.8,0.1,2.7C7,17.6,7.1,18,7.1,18.4l0.2,1.1L8,18.9c0.3-0.2,0.6-0.5,1-0.7
	c0.8-0.5,1.6-1.1,2.4-1.5c0.5-0.2,1.1-0.3,1.5-0.6c-0.2-0.2-0.2-0.1-0.2-0.1c-0.2,0-0.4,0.1-0.5,0.2c-0.5,0.2-1,0.2-1.5,0.5
	c-0.4,0.3-0.9,0.5-1.3,0.8C9,17.9,8.4,17.9,8,18.4c0,0.1-0.1,0.1-0.2,0.2l-0.2,0.1V18c0-0.2,0-0.3-0.1-0.5c-0.2-0.3-0.3-0.7-0.3-1.1
	c0-0.4-0.1-0.7,0-1.1c0.1-0.5,0.1-0.9,0-1.3c0-0.2,0.3-0.4-0.2-0.6l0.1-0.1c0.4,0,0.2-0.1,0.2-0.2c0.2-0.4,0.1-0.7,0.2-1.1v-1.1
	c-0.1-0.5,0-1.1,0-1.5c0-0.5,0-0.9,0.2-1.4v9.9l5.4-3.2l0.6-0.4c-0.1,0.1-0.2,0.2-0.3,0.3c-0.2,0.2-0.2,0.6-0.5,0.7
	c0,0,0.1,0.1,0.1,0.2c0.8-0.3,1.4-0.8,2-1.4c0.2-0.3,0.5-0.6,0.8-0.8c0.4-0.1,0.7-0.4,1.1-0.5c0.7-0.2,1-0.9,1.7-1
	C18.5,12,18.4,12,18.1,12C17.9,12,17.7,12.1,17.5,12.2z M7.6,8.2c0,0,0.1,0,0.1,0v0.1C7.7,8.2,7.7,8.2,7.6,8.2z"/>
</svg>
