<?xml version="1.0" encoding="utf-8"?>
<!-- Generator: Adobe Illustrator 24.1.3, SVG Export Plug-In . SVG Version: 6.00 Build 0)  -->
<svg version="1.1" id="Слой_1" xmlns="http://www.w3.org/2000/svg" xmlns:xlink="http://www.w3.org/1999/xlink" x="0px" y="0px"
	 viewBox="0 0 24 24" enable-background="new 0 0 24 24" xml:space="preserve">
<path fill="#E0E0E0" d="M9.6,11.1c0.3,0.1,0.4,0.4,0.8,0.4c0.2,0.1,0.4,0.2,0.6,0.2c-0.2,0-0.1-0.4-0.3-0.4s-0.3-0.2-0.5-0.2
	c-0.3-0.2-0.7-0.2-1-0.5c-0.3-0.2-0.6-0.2-0.8-0.3c-0.2-0.1-0.3-0.1-0.5-0.2L5.9,8.7c0,0,0,0,0,0c-0.3-0.4-0.5-0.7-0.8-1
	c-0.3-0.2-0.7-0.5-1-1C3.9,6.4,3.6,6.3,3.3,6.1C2.9,5.6,2.3,5.8,2,5.3H1.9L1.6,5L1.5,5.6C1.4,6.1,1.6,6.7,1.6,7.2L1.5,7.8
	c-0.1,0.2-0.2,0.6,0,0.8c-0.2,0.6-0.1,1.1-0.3,1.8c0,0.4,0,0.9-0.1,1.3c0,0.3-0.1,0.7-0.1,1.1C1,13.5,1,14.2,1,15
	c-0.1,0.9-0.1,1.8,0.1,2.7c0.1,0.4,0.1,0.9,0.2,1.3L1.4,20l0.6-0.6c0.3-0.2,0.5-0.5,0.8-0.7c0.7-0.5,1.3-1.1,2-1.5
	c0.4-0.2,0.9-0.3,1.3-0.6c-0.1-0.2-0.1-0.1-0.2-0.1c-0.1,0-0.3,0.1-0.4,0.2c-0.4,0.2-0.8,0.2-1.2,0.5c-0.3,0.3-0.8,0.5-1.1,0.8
	c-0.4,0.4-0.9,0.4-1.2,0.9c0,0.1-0.1,0.1-0.1,0.2l-0.1,0.1v-0.6c0-0.2,0-0.3-0.1-0.5c-0.1-0.3-0.3-0.7-0.3-1.1c0-0.4-0.1-0.7,0-1.1
	c0.1-0.5,0.1-0.9,0-1.3c0-0.2,0.3-0.4-0.1-0.6L1.3,14c0.3,0,0.2-0.1,0.2-0.2c0.2-0.4,0.1-0.7,0.1-1.1v-1.1c-0.1-0.5,0-1.1,0-1.5
	c0-0.5,0-0.9,0.1-1.4v9.9l4.5-3.2l0.5-0.4c-0.1,0.1-0.2,0.2-0.2,0.3c-0.1,0.2-0.2,0.6-0.4,0.7c0,0,0.1,0.1,0.1,0.2
	c0.6-0.3,1.1-0.8,1.7-1.4c0.2-0.3,0.4-0.6,0.7-0.8c0.3-0.1,0.6-0.4,0.9-0.5c0.6-0.2,0.8-0.9,1.4-1c-0.1-0.2-0.3-0.2-0.4-0.2
	c-0.2,0-0.3,0.1-0.5,0.2l0.8-0.6l-1.4-1C9.4,11.1,9.5,11.1,9.6,11.1z M1.7,8.7C1.7,8.7,1.7,8.7,1.7,8.7C1.7,8.7,1.7,8.7,1.7,8.7
	L1.7,8.7z M22.3,13.2c0.1-0.2,0-0.3,0-0.5c0-0.2-0.1-0.5-0.1-0.7v-1.7c0-0.2-0.1-0.3,0-0.3c0-0.3-0.1-0.5-0.1-0.8V8.5
	c0,0-0.1-0.2,0-0.2c0.1-0.2,0.1-0.2,0-0.3c0-0.2-0.1-0.2-0.1-0.3c0-0.2,0.1-0.3,0.1-0.7c0-0.2,0-0.3,0-0.3c0-0.2,0.1-0.2,0.1-0.3
	V5.7c0-0.2-0.1-0.3-0.1-0.5c0-0.3-0.1-0.5-0.1-0.8c0.1-0.2-0.1-0.5-0.1-0.7c0-0.2-0.1-0.2,0-0.3c0.1-0.2,0-0.3,0-0.3
	c-0.1-0.2,0-0.5,0.1-0.7c0,0,0-0.2-0.4-0.2C21.3,2,21.2,2,20.8,2c0,0.1,0,0.1,0,0.1c0,0,0,0,0,0c0,0.2-0.1,0.2,0,0.3v1.2
	c0,0.3-0.1,0.5,0,0.8c0,0.3,0.1,0.7,0.3,1c0.1,0.5,0,1,0,1.3c0,0.3-0.3,0.7-0.1,0.8c0,0,0,0,0,0.2c0,0.3-0.3,0.7-0.1,1
	c0.1,0.2,0,0.3,0,0.5c0,0.5,0.1,1,0,1.3v0.7c0,0.1,0,0.1,0,0.1c0-0.1-0.1-0.1-0.1-0.1c-0.2,0-0.3-0.2-0.5-0.2
	c-0.3-0.2-0.7-0.2-1-0.5c-0.3-0.2-0.6-0.2-0.8-0.3c-0.2-0.1-0.3-0.1-0.5-0.2L16,8.7c0,0,0,0,0,0c-0.3-0.4-0.5-0.7-0.8-1
	c-0.3-0.2-0.7-0.5-1-1c-0.2-0.3-0.5-0.4-0.8-0.6c-0.4-0.4-1.1-0.2-1.3-0.7H12L11.7,5l-0.1,0.6c-0.1,0.5,0.1,1.1,0.1,1.5l-0.1,0.6
	c-0.1,0.2-0.2,0.6,0,0.8c-0.2,0.6-0.1,1.1-0.3,1.8c0,0.4,0,0.9-0.1,1.3c0,0.3-0.1,0.7-0.1,1.1c-0.1,0.7-0.1,1.5-0.1,2.2
	c-0.1,0.9-0.1,1.8,0.1,2.7c0.1,0.4,0.1,0.9,0.2,1.3l0.1,1.1l0.6-0.6c0.3-0.2,0.5-0.5,0.8-0.7c0.7-0.5,1.3-1.1,2-1.5
	c0.4-0.2,0.9-0.3,1.3-0.6C16,16.4,16,16.5,16,16.5c-0.1,0-0.3,0.1-0.4,0.2c-0.4,0.2-0.8,0.2-1.2,0.5c-0.3,0.3-0.8,0.5-1.1,0.8
	c-0.4,0.4-0.9,0.4-1.2,0.9c0,0.1-0.1,0.1-0.1,0.2l-0.1,0.1v-0.6c0-0.2,0-0.3-0.1-0.5c-0.1-0.3-0.3-0.7-0.3-1.1c0-0.4-0.1-0.7,0-1.1
	c0.1-0.5,0.1-0.9,0-1.3c0-0.2,0.3-0.4-0.1-0.6l0.1-0.1c0.3,0,0.2-0.1,0.2-0.2c0.2-0.4,0.1-0.7,0.1-1.1v-1.1c-0.1-0.5,0-1.1,0-1.5
	c0-0.5,0-0.9,0.1-1.4v9.9l4.5-3.2l0.5-0.4c-0.1,0.1-0.2,0.2-0.2,0.3c-0.1,0.2-0.2,0.6-0.4,0.7c0,0,0.1,0.1,0.1,0.2
	c0.6-0.3,1.1-0.8,1.7-1.4c0.2-0.3,0.4-0.6,0.7-0.8c0.3-0.1,0.6-0.4,0.9-0.5c0.6-0.2,0.8-0.9,1.4-1c-0.1-0.2-0.3-0.2-0.4-0.2
	c-0.2,0-0.3,0.1-0.5,0.2l0.8-0.6l-1.4-1c0.1,0,0.2-0.1,0.3,0c0.3,0.1,0.4,0.4,0.8,0.4c0.1,0.1,0.3,0.1,0.4,0.2
	c0,0.3,0.1,0.4,0.1,0.7c0,0.2,0.1,0.3,0,0.5c0,0.3-0.1,0.5-0.1,0.5v0.8c0,0.2,0,0.2,0,0.3c0,0.5,0.1,1,0.1,1.5c0,0.3,0.1,0.5,0,0.8
	c-0.1,0.2,0,0.2,0,0.3c-0.1,0.2-0.1,0.3-0.1,0.5c0,0.3,0,0.7-0.1,1.2c-0.1,0.3-0.1,0.5-0.3,0.8c-0.1,0.2,0.4,0.3,0.1,0.7
	c0,0,0,0.2,0.1,0.3c0,0-0.1,0.2,0,0.2c0.1,0,0.1,0.2,0.1,0.3c0,0.2,0.1,0.2,0,0.3c-0.1,0,0,0.2,0,0.2s0.1,0,0,0.2c-0.1,0,0,0,0,0.2
	c0,0,0.3,0,0.5,0c0.4,0,0.4,0,0.4-0.2c0.4-0.2,0.3-0.3,0.1-0.3c-0.1,0-0.1-0.2,0-0.2c0,0,0.1,0,0-0.2c-0.1,0-0.1-0.2,0-0.2
	c0.1,0,0.1-0.2,0.1-0.2s0,0,0-0.2v-0.5L21.8,20c-0.1-0.2,0-0.2,0-0.3l-0.1-0.2c0.1-0.2,0.1-0.5,0.1-0.7c0.1-0.2,0.3-0.2,0.3-0.3
	c-0.1-0.3,0-0.5,0-0.8c0-0.2,0.1-0.3,0.1-0.7c0.1-0.2,0-0.5,0-0.7v-0.5c0.1-0.2,0-0.3,0-0.5c-0.1-0.3,0.1-0.5,0-0.8
	c0-0.2,0.1-0.2,0.1-0.3c0-0.2,0-0.2,0-0.3c0-0.2,0.1-0.3,0-0.5C22.3,13.3,22.2,13.2,22.3,13.2z M11.8,8.7
	C11.8,8.7,11.8,8.7,11.8,8.7C11.8,8.7,11.8,8.7,11.8,8.7L11.8,8.7z"/>
</svg>
