<?xml version="1.0" encoding="utf-8"?>
<!-- Generator: Adobe Illustrator 24.1.3, SVG Export Plug-In . SVG Version: 6.00 Build 0)  -->
<svg version="1.1" id="Слой_1" xmlns="http://www.w3.org/2000/svg" xmlns:xlink="http://www.w3.org/1999/xlink" x="0px" y="0px"
	 viewBox="0 0 24 24" enable-background="new 0 0 24 24" xml:space="preserve">
<path fill="#BF6B6B" d="M12.7,5.1L12.6,4L12,4.6c-0.3,0.2-0.5,0.5-0.8,0.7c-0.7,0.5-1.3,1.1-2,1.5C8.7,7,8.2,7.1,7.8,7.4
	C8,7.6,8,7.5,8,7.5c0.1,0,0.3-0.1,0.4-0.2c0.4-0.2,0.8-0.2,1.2-0.5C10,6.5,10.5,6.4,10.8,6c0.4-0.4,0.9-0.4,1.2-0.9
	c0-0.1,0.1-0.1,0.1-0.2l0.1-0.1v0.6c0,0.2,0,0.3,0.1,0.5c0.1,0.3,0.3,0.7,0.3,1.1c0,0.4,0.1,0.7,0,1.1c-0.1,0.5-0.1,0.9,0,1.3
	c0,0.2-0.3,0.4,0.1,0.6L12.6,10c-0.3,0-0.2,0.1-0.2,0.2c-0.2,0.4-0.1,0.7-0.1,1.1v1.1c0.1,0.5,0,1.1,0,1.5c0,0.5,0,0.9-0.1,1.4V5.3
	L7.7,8.5L7.2,8.9c0.1-0.1,0.2-0.2,0.2-0.3c0.1-0.2,0.2-0.6,0.4-0.7c0,0-0.1-0.1-0.1-0.2C7.1,8.1,6.6,8.5,6.1,9.1
	C5.9,9.4,5.7,9.8,5.4,9.9C5,10,4.8,10.3,4.5,10.4c-0.6,0.2-0.8,0.9-1.4,1c0.1,0.2,0.3,0.2,0.4,0.2c0.2,0,0.3-0.1,0.5-0.2l-0.8,0.6
	l1.4,1c-0.1,0-0.2,0.1-0.3,0c-0.3-0.1-0.4-0.4-0.8-0.4c-0.1-0.1-0.3-0.1-0.4-0.2c0-0.3-0.1-0.4-0.1-0.7c0-0.2-0.1-0.3,0-0.5
	c0-0.3,0.1-0.5,0.1-0.5V9.8c0-0.2,0-0.2,0-0.3c0-0.5-0.1-1-0.1-1.5c0-0.3-0.1-0.5,0-0.8c0.1-0.2,0-0.2,0-0.3
	c0.1-0.2,0.1-0.3,0.1-0.5c0-0.3,0-0.7,0.1-1.2c0.1-0.3,0.1-0.5,0.3-0.8C3.7,4.2,3.2,4,3.5,3.7c0,0,0-0.2-0.1-0.3c0,0,0.1-0.2,0-0.2
	C3.2,3.2,3.2,3,3.2,2.8c0-0.2-0.1-0.2,0-0.3c0.1,0,0-0.2,0-0.2s-0.1,0,0-0.2c0.1,0,0,0,0-0.2c0,0-0.3,0-0.5,0C2.3,2,2.3,2,2.3,2.2
	C1.9,2.3,2,2.5,2.2,2.5s0.1,0.2,0,0.2c0,0-0.1,0,0,0.2c0.1,0,0.1,0.2,0,0.2S2,3.2,2,3.2s0,0,0,0.2v0.5L2.2,4c0.1,0.2,0,0.2,0,0.3
	l0.1,0.2C2.2,4.7,2.2,5,2.2,5.2C2,5.3,1.9,5.3,1.9,5.5c0.1,0.3,0,0.5,0,0.8c0,0.2-0.1,0.3-0.1,0.7c-0.1,0.2,0,0.5,0,0.7v0.5
	c-0.1,0.2,0,0.3,0,0.5c0.1,0.3-0.1,0.5,0,0.8c0,0.2-0.1,0.2-0.1,0.3c0,0.2,0,0.2,0,0.3c0,0.2-0.1,0.3,0,0.5c0,0,0.1,0.2,0,0.2
	c-0.1,0.2,0,0.3,0,0.5c0,0.2,0.1,0.5,0.1,0.7v1.7c0,0.2,0.1,0.3,0,0.3c0,0.3,0.1,0.5,0.1,0.8v0.7c0,0,0.1,0.2,0,0.2
	c-0.1,0.2-0.1,0.2,0,0.3c0,0.2,0.1,0.2,0.1,0.3c0,0.2-0.1,0.3-0.1,0.7c0,0.2,0,0.3,0,0.3c0,0.2-0.1,0.2-0.1,0.3v0.7
	c0,0.2,0.1,0.3,0.1,0.5c0,0.3,0.1,0.5,0.1,0.8c-0.1,0.2,0.1,0.5,0.1,0.7c0,0.2,0.1,0.2,0,0.3c-0.1,0.2,0,0.3,0,0.3
	c0.1,0.2,0,0.5-0.1,0.7c0,0,0,0.2,0.4,0.2C2.7,22,2.8,22,3.2,22c0-0.1,0-0.1,0-0.1c0,0,0,0,0,0c0-0.2,0.1-0.2,0-0.3v-1.2
	c0-0.3,0.1-0.5,0-0.8c0-0.3-0.1-0.7-0.3-1c-0.1-0.5,0-1,0-1.3c0-0.3,0.3-0.7,0.1-0.8c0,0,0,0,0-0.2c0-0.3,0.3-0.7,0.1-1
	c-0.1-0.2,0-0.3,0-0.5c0-0.5-0.1-1,0-1.3v-0.7c0-0.1,0-0.1,0-0.1c0,0.1,0.1,0.1,0.1,0.1c0.2,0,0.3,0.2,0.5,0.2
	c0.3,0.2,0.7,0.2,1,0.5c0.3,0.2,0.6,0.2,0.8,0.3c0.2,0.1,0.3,0.1,0.5,0.2L8,15.3c0,0,0,0,0,0c0.3,0.4,0.5,0.7,0.8,1
	c0.3,0.2,0.7,0.5,1,1c0.2,0.3,0.5,0.4,0.8,0.6c0.4,0.4,1.1,0.2,1.3,0.7H12l0.3,0.3l0.1-0.6c0.1-0.5-0.1-1.1-0.1-1.5l0.1-0.6
	c0.1-0.2,0.2-0.6,0-0.8c0.2-0.6,0.1-1.1,0.3-1.8c0-0.4,0-0.9,0.1-1.3c0-0.3,0.1-0.7,0.1-1.1c0.1-0.7,0.1-1.5,0.1-2.2
	c0.1-0.9,0.1-1.8-0.1-2.7C12.8,5.9,12.8,5.5,12.7,5.1z M12.2,15.3L12.2,15.3C12.2,15.3,12.2,15.3,12.2,15.3
	C12.2,15.3,12.2,15.3,12.2,15.3z M23,6.4c-0.1-0.4-0.1-0.9-0.2-1.3L22.6,4l-0.6,0.6c-0.3,0.2-0.5,0.5-0.8,0.7
	c-0.7,0.5-1.3,1.1-2,1.5c-0.4,0.2-0.9,0.3-1.3,0.6c0.1,0.2,0.1,0.1,0.2,0.1c0.1,0,0.3-0.1,0.4-0.2c0.4-0.2,0.8-0.2,1.2-0.5
	c0.3-0.3,0.8-0.5,1.1-0.8c0.4-0.4,0.9-0.4,1.2-0.9c0-0.1,0.1-0.1,0.1-0.2l0.1-0.1v0.6c0,0.2,0,0.3,0.1,0.5c0.1,0.3,0.3,0.7,0.3,1.1
	c0,0.4,0.1,0.7,0,1.1c-0.1,0.5-0.1,0.9,0,1.3c0,0.2-0.3,0.4,0.1,0.6L22.7,10c-0.3,0-0.2,0.1-0.2,0.2c-0.2,0.4-0.1,0.7-0.1,1.1v1.1
	c0.1,0.5,0,1.1,0,1.5c0,0.5,0,0.9-0.1,1.4V5.3l-4.5,3.2l-0.5,0.4c0.1-0.1,0.2-0.2,0.2-0.3c0.1-0.2,0.2-0.6,0.4-0.7
	c0,0-0.1-0.1-0.1-0.2c-0.6,0.3-1.1,0.8-1.7,1.4c-0.2,0.3-0.4,0.6-0.7,0.8c-0.3,0.1-0.6,0.4-0.9,0.5c-0.6,0.2-0.8,0.9-1.4,1
	c0.1,0.2,0.3,0.2,0.4,0.2c0.2,0,0.3-0.1,0.5-0.2l-0.8,0.6l1.4,1c-0.1,0-0.2,0.1-0.3,0c-0.3-0.1-0.4-0.4-0.8-0.4l-0.6-0.2
	c0.2,0,0.1,0.4,0.3,0.4s0.3,0.2,0.5,0.2c0.3,0.2,0.7,0.2,1,0.5c0.3,0.2,0.6,0.2,0.8,0.3c0.2,0.1,0.3,0.1,0.5,0.2l1.9,1.4
	c0,0,0,0,0,0c0.3,0.4,0.5,0.7,0.8,1c0.3,0.2,0.7,0.5,1,1c0.2,0.3,0.5,0.4,0.8,0.6c0.4,0.4,1.1,0.2,1.3,0.7h0.1l0.3,0.3l0.1-0.6
	c0.1-0.5-0.1-1.1-0.1-1.5l0.1-0.6c0.1-0.2,0.2-0.6,0-0.8c0.2-0.6,0.1-1.1,0.3-1.8c0-0.4,0-0.9,0.1-1.3c0-0.3,0.1-0.7,0.1-1.1
	C23,10.5,23,9.8,23,9C23.1,8.1,23.1,7.2,23,6.4z M22.3,15.3L22.3,15.3C22.3,15.3,22.3,15.3,22.3,15.3C22.3,15.3,22.3,15.3,22.3,15.3
	z"/>
</svg>
