<?xml version="1.0" encoding="utf-8"?>
<svg version="1.1" id="Слой_1" xmlns="http://www.w3.org/2000/svg" xmlns:xlink="http://www.w3.org/1999/xlink" x="0px" y="0px"
	 viewBox="0 0 18 24" enable-background="new 0 0 18 24" xml:space="preserve">
<path fill="#123A54" d="M17.8,17.7c-0.1-0.5-0.1-0.8-0.1-1.3c0.1-0.4,0.1-0.8,0.1-1.4v-0.8c-0.1-0.3-0.1-0.6-0.1-0.8
	c-0.1-0.7-0.1-1.7-0.1-2.2c0.1-0.3,0.1-0.4,0.1-0.5V10c0.1-0.3,0.1-0.4,0.1-0.8c0-0.3-0.1-0.6-0.1-0.9c0.1-0.1,0.2-0.2,0.2-0.4
	c0-0.1,0.1-0.2,0.1-0.3c0-0.1-0.1-0.2-0.1-0.3c0-0.1-0.1-0.2-0.1-0.3c0,0-0.1-0.1-0.1-0.1c-0.1-0.1,0-0.1-0.1-0.1
	c-0.2-0.1-0.5-0.1-0.6-0.3c-0.1-0.1-0.2-0.1-0.2-0.2c0-0.1,0-0.1-0.1-0.2c0,0,0,0,0,0c0,0,0,0,0,0c0,0-0.1-0.1-0.1-0.1
	c-0.1,0-0.1-0.1-0.1-0.1c-0.1,0-0.1,0-0.2-0.1c-0.1-0.1-0.3-0.2-0.3-0.3c0,0,0,0,0,0c0,0,0,0,0,0C16,5.5,16,5.4,16,5.4
	c-0.1-0.1-0.1-0.1-0.1-0.1c-0.1-0.1,0-0.1-0.1-0.2c-0.1,0-0.2-0.1-0.3-0.1c0,0,0,0,0-0.1c0-0.1,0-0.2-0.1-0.3
	c-0.2-0.2-0.2-0.3-0.4-0.3c-0.1-0.1-0.2-0.1-0.3-0.2c0,0,0-0.1,0-0.1c0-0.2,0-0.2-0.1-0.3s-0.2-0.2-0.4-0.3c0,0,0,0,0,0
	c-0.1-0.1-0.1-0.1-0.2-0.2c0-0.1,0-0.3-0.1-0.3s-0.1-0.1-0.2-0.2c-0.1-0.1-0.2-0.1-0.2-0.2c0,0-0.1,0-0.1,0c0-0.1,0-0.1,0-0.1
	c0-0.1-0.1-0.1-0.1-0.2c0-0.1-0.1-0.1-0.2-0.1C13.1,2,13,2,12.8,1.9c0-0.1-0.1-0.1-0.1-0.1c-0.1,0-0.1,0-0.2-0.1
	c0-0.1-0.1-0.1-0.1-0.1c0,0,0,0-0.1,0c0,0,0-0.1,0-0.1c-0.4-0.6-1.1-1-1.7-1.2c-0.2-0.1-0.4-0.1-0.6-0.2C10,0.1,10,0,9.9,0H8.7
	C8.5,0,8,0.1,7.7,0.1C7.4,0.1,7.1,0.2,6.8,0.2H6.3C6,0.2,5.8,0.3,5.5,0.3H5c-0.4,0-1.1,0.1-1.3,0.1C3.3,0.4,2.9,0.5,2.6,0.6
	c-0.2,0-0.4,0-0.6,0.1H1.7c0,0-0.1,0-0.1,0c0.1-0.1,0.2-0.1,0.2-0.2c-0.3,0-0.6,0.1-0.9,0.3C0.6,0.8,0.3,1.1,0.1,1.4
	C0.1,1.6,0,1.8,0,2c0.1,0.2,0.1,0.3,0.1,0.5c0,0.3,0.1,0.7,0.1,1v0.6c0,0.4,0.1,0.8,0.1,1.1c0,0.3-0.1,0.6-0.1,0.9v0.6
	c0,0.3-0.1,0.4-0.1,0.7v0.8C0,8.6-0.1,8.9,0.1,9.2c-0.1,0.4,0.1,1.4,0.1,2v0.4c0,0.7,0.1,1.5,0.1,2.2c-0.1,0.5-0.1,0.9-0.1,1.4
	c0.1,0.2,0.1,0.4,0.1,0.6c0,0.2-0.1,0.4-0.1,0.6c0,0.2,0.1,0.5,0.1,0.7c0,0.2,0.1,0.4,0.1,0.6v1c0,0.2-0.1,0.3-0.1,0.6
	c0,0.5,0.1,1.1,0.1,1.7c-0.1,0.1-0.1,0.3-0.1,0.4v0.6c-0.1,0.2-0.1,0.4,0,0.7C0.3,23,0.6,23.3,1,23.5c0.1,0.1,0.4,0.2,0.6,0.2h0.6
	c0.2,0,0.5,0.1,0.7,0.1h1.1c0.3,0.1,0.7,0.1,1,0.1c0.3,0.1,0.6,0.1,0.9,0.1c0.3-0.1,0.7-0.1,1.1-0.1h0.9C7.9,23.9,8,23.9,8,23.9
	c0.6,0,1.1-0.1,1.7-0.1c0.8-0.1,1.9-0.1,2.6,0.1c0.5-0.1,0.9-0.1,1.4-0.2c0.2,0,0.4-0.1,0.6-0.1c0.3,0.1,0.4,0.1,0.7,0.1
	c0.3,0.1,0.6,0.1,0.7,0.1c0.2,0,0.2,0.1,0.4,0.1c0.1,0.1,0.4,0.1,0.6,0c0.6-0.1,1-0.8,1.1-1.3c0.1-0.2,0.1-0.5,0.1-0.6
	c-0.1-0.3-0.1-0.5-0.1-0.8c0.1-0.4,0.1-0.8,0.1-1.1C17.9,19.3,17.8,18.6,17.8,17.7z M14.6,5.8c0,0,0.1,0,0.1,0c0,0,0,0.1,0,0.1
	c-0.1,0-0.1,0-0.2-0.1C14.6,5.9,14.6,5.9,14.6,5.8z M12.4,5.1c0,0,0.1-0.1,0.1-0.1h0c0.1,0,0.1-0.1,0.1-0.1c0.1-0.1,0.2,0.1,0.3,0
	C13,4.9,13,4.7,13,4.7l0.1-0.1v0c0,0,0,0,0.1,0v0c0.1,0,0.1,0,0.2,0c0,0,0,0,0,0c0,0,0.1,0.1,0.1,0.1c0,0,0,0.1,0,0.1
	c0,0.1,0.1,0.1,0,0.2c0.1,0,0.1,0,0.1,0.1c0,0-0.1,0.1-0.1,0.1c-0.1,0.1-0.1,0.1,0,0.2c0.1,0.1,0.1,0.1,0.2,0.1
	c0.1,0.1,0.2,0,0.2,0.1c0,0,0,0.1,0,0.1s0.1,0.1,0.1,0.1v0.1c0,0,0,0,0,0c-0.1,0-0.1,0-0.2,0c-0.1,0-0.1-0.1-0.2-0.1h-0.1
	c0-0.1-0.1-0.1-0.1-0.1c-0.1,0-0.1,0.1-0.1,0.1c0,0-0.1,0-0.1,0c-0.1,0-0.1-0.1-0.1-0.1c-0.3-0.2-0.5-0.2-0.9-0.4V5.1z M9.4,0.6
	c0.1,0,0.2,0,0.3,0.1H7.9C8.3,0.6,8.7,0.5,9.4,0.6z M1.2,9.7c0.1,0.3,0.1,0.6,0.1,1c0,0.4-0.1,0.8-0.1,1.2c0,0.3,0.1,0.4,0.1,0.7
	c-0.1,0.2-0.1,0.3-0.1,0.5c0,0.4,0.1,0.8,0.1,1.3c0,0.2-0.1,0.3-0.1,0.4V9.7z M16.4,14v0.6c0,0.2-0.1,0.4-0.1,0.6v0.8
	c-0.1,0.3-0.1,0.5-0.1,0.8c-0.1,0.4,0.1,1.3,0.1,1.8v0.4c0,0.7,0.1,1.4,0.1,2.1v1c0,0.1-0.1,0.1-0.1,0.1c-0.1,0.1-0.1,0.1-0.3,0.1
	c-0.2,0-0.4-0.1-0.6-0.1c-0.1,0-0.4,0.1-0.6,0.1c-0.2,0-0.4,0.1-0.6,0.1h-0.9c-0.2,0-0.3-0.1-0.5-0.1c-0.5,0-1.1,0.1-1.6,0.1
	c-0.1-0.1-0.2-0.1-0.4-0.1h-0.5c-0.2,0-0.4-0.1-0.6-0.1c-0.4,0-0.7,0.1-1,0.1c-0.3,0.1-0.7,0.1-1,0.1c-0.2,0-0.4-0.1-0.7-0.1h-1
	c-0.3-0.1-0.6-0.1-0.9-0.1c-0.2-0.1-0.6-0.1-0.9-0.1c-0.3,0.1-0.7,0.1-1,0.1H2.3c-0.1-0.1-0.2-0.1-0.2-0.1c-0.4,0-0.3,0-0.4-0.1
	c-0.1,0-0.1-0.1-0.1-0.1v-0.2c-0.1-0.1-0.1-0.3-0.1-0.4c-0.1-0.8-0.1-1.9,0.1-2.5c-0.1-0.5-0.1-0.9-0.2-1.3c0-0.2-0.1-0.4-0.1-0.6
	c0.1-0.3,0.1-0.4,0.1-0.6c0.1-0.3,0.1-0.5,0.1-0.7c0.1-0.3,0.3-0.5,0.3-0.8c0.1-0.4-0.1-0.9-0.1-1.3v-0.5c-0.1-0.3-0.1-0.4-0.1-0.7
	c0.1-0.4,0.1-0.7,0.1-1.1c-0.1-0.8-0.2-1.4-0.2-2.3C1.6,8.6,1.6,8.3,1.6,7.8C1.6,7.4,1.6,7,1.6,6.5V5.8C1.6,5.5,1.5,5.3,1.5,5
	C1.4,4.4,1.4,3.5,1.4,3c0.1-0.2,0.1-0.4,0.1-0.4V2.1C1.4,2,1.5,2,1.5,2c0.1-0.1,0.1,0,0.4,0c0.9-0.1,1.9-0.2,3-0.2
	c0.4,0.1,0.9,0.1,1.6,0.1c0.4-0.1,0.8-0.1,1.1-0.1C7.7,1.8,7.9,1.9,8,2C8.4,2.1,8.5,2.1,9,2.1h0.9c0.2,0,0.4,0,0.6,0.1
	s0.6,0.2,0.7,0.4c0.1,0.2,0.1,0.4,0.1,0.6c0.1,0.1,0.1,0.2,0.1,0.3s-0.1,0.1-0.1,0.2s0,0.1-0.1,0.2s-0.1,0.1-0.2,0.1
	C11.1,4,11.1,4.2,11,4.3l-0.1,0.1c-0.1,0.1-0.2,0.3-0.4,0.3c-0.1,0.1-0.2,0.1-0.3,0.1c0,0,0,0,0,0H9.9c0,0-0.1,0-0.1,0
	c0,0-0.1,0-0.2,0.1C9.4,5,9.2,5.1,9.1,5.5C9,5.7,9.1,6.1,9.3,6.4c0.1,0.1,0.2,0.3,0.4,0.3c0.1,0.1,0.2,0.1,0.2,0.1
	c0.2,0.1,0.6,0.1,0.9,0.2c0.3,0,0.6,0.1,0.9,0.1c0.1,0,0.3,0.1,0.4,0.1c0.2,0.1,0.5,0.1,0.7,0.1c0.1,0,0.3,0.1,0.4,0.1
	c0.4,0.1,1,0.3,1.2,0.3c0.1,0,0.2,0,0.3,0c0.1,0.1,0.1,0.2,0.2,0.3c0.1,0.1,0.2,0.1,0.4,0.1c0,0,0.1,0.1,0.1,0.1h0.2
	c0.1,0.1,0.2,0.1,0.3,0.2c0.1,0,0.2,0,0.3,0c0,0.1,0,0.3,0,0.5c0,0.3-0.1,0.6-0.1,0.8c0,0.3,0.1,0.6,0.1,0.9c0,0.3,0.1,0.6,0.1,0.9
	v0.6c0,0.4,0.1,0.8,0.1,1.1C16.4,13.5,16.4,13.7,16.4,14z M11.3,20.6C11.4,20.5,11.4,20.5,11.3,20.6C11.2,20.5,11.3,20.5,11.3,20.6z
	 M9,19.6C9,19.6,8.9,19.6,9,19.6C8.9,19.6,8.9,19.6,9,19.6C8.9,19.6,9,19.6,9,19.6z M13.6,14.9c0-0.1,0.1-0.1-0.1-0.1
	c0-0.1,0-0.1,0-0.1c-0.1-0.1,0,0,0.1,0c0-0.1-0.1-0.1-0.1-0.1c-0.1-0.1-0.1-0.1-0.2-0.1c-0.2-0.1-0.3-0.2-0.4-0.2c0,0,0,0.1-0.1,0
	c-0.1,0-0.1-0.1-0.1-0.1c-0.1-0.1-0.1-0.1-0.1-0.1h-0.1c-0.1-0.1-0.3-0.1-0.3-0.1c-0.1,0-0.1,0-0.1,0c0,0.1-0.1,0.1-0.1,0.1
	c0,0,0.1,0.1,0,0.1l0.1,0.1c0,0,0,0,0,0c0,0,0,0,0,0C12,14.3,12,14.3,12,14.3c-0.1-0.1,0,0-0.1,0l0.1,0.1c0.1,0.1,0.1,0.1,0.1,0.1
	c-0.1,0-0.1,0-0.1,0c-0.1,0-0.1,0,0,0.1c0,0,0,0-0.1,0.1c-0.1,0.1,0,0.1,0.3,0.4h0c0,0,0,0.1-0.1,0c0,0.1,0,0.1,0,0.1c0,0,0,0,0,0v0
	C12.1,15,12,15,12,15s0,0,0.1,0.1c0.1,0.1,0.1,0.1,0.1,0.1c0.1,0,0.1,0,0.1,0c0,0.1,0,0-0.1,0l-0.1-0.1C12,15,12,15,12,15.1
	c-0.1,0-0.1,0-0.1,0c-0.1,0-0.1,0-0.1,0.1l0.1,0.1c0.1,0,0.1,0.1,0.1,0.1c-0.1,0-0.1,0-0.1,0c0-0.1-0.1-0.1-0.1-0.1s-0.1,0-0.1-0.1
	c0,0-0.1,0.1,0,0.1l0.1,0.1c-0.1-0.1-0.1,0-0.1,0c0.1,0,0.1,0.1,0.1,0.1c-0.1,0-0.1-0.1-0.1-0.1l0.1,0.1c0,0,0,0,0,0c0,0,0,0,0,0
	c-0.1-0.1-0.1-0.1-0.1-0.1c-0.1,0-0.1,0-0.1,0c0,0.1-0.1,0-0.1,0c-0.1,0-0.1,0,0,0.1h-0.1c0,0.1-0.1,0.1,0,0.1c0.1,0.1,0,0.1,0,0.1
	c-0.1,0-0.1-0.1-0.1-0.1c0,0.1,0,0.1-0.1,0.1c-0.1,0,0,0-0.1,0c0.1,0.1,0.1,0.1,0.1,0.1c-0.1-0.1-0.1-0.1-0.1,0c0,0,0,0,0,0.1
	c0,0,0,0,0,0c0,0,0,0,0,0c-0.1,0-0.1,0-0.1,0c0.1,0.1,0,0,0,0.1c0,0.1,0,0.1,0,0.1c0,0,0,0,0,0c0,0,0,0,0,0s0,0-0.1,0
	c-0.1,0,0.1,0.1,0,0.1c0,0.1,0,0.1,0,0.1C11,16,11,16,11,16.1c0.1,0.1,0,0.1,0,0.1c-0.1,0,0,0.1,0,0.1c-0.1,0-0.1,0.1-0.1,0.1
	c0,0.1-0.1,0.1-0.1,0.1v0.1c0,0,0,0-0.1,0c0,0.1,0,0.1,0,0.1c-0.1,0-0.1,0.1-0.1,0.1c-0.1,0,0.1,0.1,0,0.1c-0.1-0.1-0.1,0-0.1,0
	s-0.1,0-0.1,0.1c-0.1,0-0.1,0-0.1,0.1c-0.1,0-0.1,0-0.1,0L10.4,17c0,0-0.1,0.1-0.1,0.1l-0.1,0.1c-0.1,0.1-0.2,0.3-0.3,0.5
	c0,0.1-0.1,0.1-0.1,0.2c0,0,0,0,0,0H9.8c0-0.1,0-0.1-0.1-0.1c0-0.1,0-0.1,0.1-0.1c0-0.1,0-0.1,0-0.1c0-0.1,0-0.1,0-0.1
	c0.1,0,0.1-0.1,0.1-0.1s-0.1,0-0.1,0c0.1,0,0.1,0,0.1-0.1c0.1,0,0.1-0.1,0-0.1h0.1c0.1-0.1,0.1-0.1,0.1-0.2c-0.1,0-0.1,0-0.1,0
	c0-0.1,0.1-0.1,0-0.1c0-0.1,0-0.1-0.1-0.1c0.1,0,0.1,0,0.1,0l-0.1-0.1h0.1c0,0,0.1,0,0.1,0c0-0.1,0-0.1,0-0.1c0-0.1,0-0.1-0.1-0.1
	c0.1,0,0.1-0.1,0-0.1H10c-0.1,0-0.1-0.1,0-0.1H9.9c-0.1,0,0-0.1-0.1-0.1h0.1c0.1,0,0.1,0,0.1,0H10c-0.1,0-0.1-0.1,0-0.1
	c0.1-0.1,0.1-0.1-0.1-0.1c0.1,0,0.1-0.1,0-0.1c0-0.1,0.1-0.1,0.1-0.1s0,0-0.1,0H9.9c0-0.1,0.1-0.1,0.1-0.1c-0.1-0.1-0.1-0.1,0-0.1
	c0-0.1,0-0.1,0-0.1S10,16,10,16H10c0.1,0,0.1-0.1,0.1-0.1c-0.1,0,0-0.1-0.1-0.1c0,0,0,0,0.1,0c-0.1-0.1-0.1-0.1-0.1-0.1H10v-0.1
	c-0.1,0-0.1-0.1,0-0.1c-0.1,0,0.1-0.1,0-0.1c-0.1,0-0.1-0.1,0-0.1c-0.1,0-0.1-0.1-0.1-0.1s0,0-0.1,0c0.1,0,0.1-0.1,0.1-0.1
	c0-0.1,0-0.1,0.1-0.1c0.1,0-0.1-0.1,0-0.1c-0.1-0.1-0.1-0.1-0.1-0.1c0.1,0,0.1-0.1,0-0.1v-0.1c0-0.1,0-0.1,0-0.1c-0.1,0,0-0.1,0-0.1
	l-0.1-0.1v-0.1c0-0.1,0-0.1,0-0.1c0-0.1,0.1-0.1,0-0.2c0-0.1,0-0.1,0-0.1v-0.1c0,0,0-0.1,0.1-0.1c-0.1,0-0.1,0-0.1,0
	c0.1-0.1-0.1-0.2,0-0.3c0,0-0.1-0.1-0.1-0.1c0.1,0,0.1-0.1,0.1-0.1v-0.2c0,0,0.1-0.1,0-0.1v-0.8c0-0.3-0.1-0.6-0.1-0.9
	c-0.1-0.2,0-0.4-0.1-0.6V9.1c0-0.2,0.1-0.3,0.1-0.5s0-0.2,0.1-0.3c0.1,0,0.1-0.1,0.1-0.1c0.1-0.1,0.1-0.1-0.1-0.1H9.5
	C9.5,8.3,9.4,8.3,9.4,8.3c-0.1,0-0.1,0.1-0.2,0.1C9.1,8.5,9.1,8.6,9.1,8.7C9,8.8,9,9,9,9.1v0.3c0,0.2-0.1,0.3-0.1,0.5
	c0,0.1,0,0.1,0,0.1c-0.1,0.1-0.1,0.2-0.1,0.3v0.1c0,0.2-0.1,0.4-0.1,0.6c-0.1,0.1,0,0.2-0.1,0.3c0,0.1,0,0.1,0,0.1
	c0,0.1-0.1,0.3-0.1,0.4S8.5,12,8.5,12.1c0,0.1,0,0.1,0,0.1v0.3c0,0.1,0.1,0.3,0,0.4v0.3c-0.1,0.1,0,0.1,0,0.2v0.9
	c0.1,0.1,0,0.3,0.1,0.4c0.1,0.1,0.1,0.3,0.1,0.4c0,0.1,0,0.1,0,0.1v0.9c0.1,0.1,0,0.2,0,0.3c0,0.1,0,0.1,0,0.1v0.3
	c0.1,0.1,0,0.1,0,0.2v0.2c0,0.1,0,0.1,0,0.1c0,0.1,0,0.1,0,0.1c0,0.1,0,0.1,0,0.1c0,0,0.1,0.1,0,0.1c0,0.1,0,0.1,0,0.1V18
	c0,0.1-0.1,0.1-0.1,0.1c0,0,0,0,0,0c0,0,0-0.1-0.1-0.1c0-0.1-0.1-0.1-0.1-0.2v-0.1c0-0.1,0-0.1-0.1-0.2c0-0.1-0.1-0.1-0.1-0.2v-0.1
	c0-0.1-0.1-0.1-0.1-0.2c0-0.1-0.1-0.1-0.1-0.2c0-0.1-0.1-0.1-0.1-0.1c0,0-0.1,0-0.1-0.1c0-0.1-0.1-0.1-0.1-0.1
	c0-0.1-0.1-0.1-0.1-0.2c0,0,0-0.1-0.1-0.1c-0.1,0-0.1-0.1-0.2-0.1c-0.1,0-0.1-0.1-0.1-0.1c0-0.1-0.1-0.1-0.1-0.1
	c-0.1-0.1-0.1-0.1-0.1-0.2c-0.1-0.1-0.1-0.1-0.1-0.2c0,0,0-0.1-0.1-0.1c0,0-0.1,0-0.1-0.1c0-0.1,0-0.1-0.1-0.1
	c-0.1-0.1,0-0.1-0.1-0.1c-0.1,0-0.1-0.1-0.1-0.1s0.1-0.1,0-0.1S6.7,15,6.7,15c-0.1,0-0.1-0.1-0.1-0.1s-0.1,0-0.1-0.1
	c0-0.1,0-0.1,0-0.1s-0.1,0-0.1-0.1v-0.1c0,0,0.1-0.1,0-0.1c0.1-0.1,0-0.1,0-0.1c0.1-0.1,0-0.1,0-0.2c0,0,0,0,0-0.1v-0.1
	c0.1-0.1,0-0.2-0.1-0.3c0-0.1,0-0.1-0.1,0c-0.1,0-0.1,0-0.1,0c0,0,0,0,0,0c0,0-0.1,0-0.1,0.1C6,14,6,14,5.9,14.1
	c-0.2,0.1-0.3,0.3-0.3,0.3c0,0,0,0-0.1,0.1c-0.1,0.1-0.1,0.1-0.1,0.1H5.3c-0.1,0.1-0.1,0.1-0.1,0.1c-0.1,0.1-0.1,0.2-0.1,0.3
	c0,0,0,0,0.1,0.1c0.1,0,0.1,0.1,0.1,0.1c-0.1,0.1,0,0,0,0.1c0,0.1,0.1,0,0.1,0c0.1-0.1,0.1-0.1,0.1-0.1c0,0.1,0,0.1,0,0.1
	c-0.1,0.1,0,0,0.1,0c-0.1,0,0,0,0,0.1c0,0.1,0,0.1,0,0.1s0,0-0.1,0c0,0.1,0,0.1,0,0.1c0.1,0,0.1,0,0,0.1c0.1,0,0.1,0,0.1,0l0.1-0.1
	c0,0,0,0,0.1,0c0.1,0,0.1,0,0,0.1c0.1,0,0.1,0,0.1,0c0,0.1,0,0.1-0.1,0.1c0,0.1,0.1,0.1,0.1,0.1c0-0.1,0.1-0.1,0.1-0.1l-0.1,0.1
	c-0.1,0.1-0.1,0.1,0,0.1c0-0.1,0.1-0.1,0.1-0.1c-0.1,0.1-0.1,0.1-0.1,0.1c-0.1,0.1,0,0.1,0,0.1l0.1-0.1c0,0,0,0,0.1,0
	c-0.1,0.1-0.1,0.1-0.1,0.1h0.1c0,0.1-0.1,0.1-0.1,0.1s-0.1,0-0.1,0.1c0,0,0,0,0.1,0c0.1,0,0.1-0.1,0.1-0.1c0,0.1-0.1,0.1-0.1,0.1
	c-0.1,0-0.1,0-0.1,0c-0.1,0.1-0.1,0.1,0,0.1h0.1C5.7,16,5.7,16,5.7,16h0.1l-0.1,0.1H5.6c0.1,0,0,0.1,0,0.1c-0.1,0-0.1,0-0.1,0
	l-0.1,0.1c-0.1,0.1-0.1,0.1,0.1,0c-0.1,0.1-0.1,0.1,0,0.1c-0.1,0-0.1,0.1-0.1,0.1s0,0,0.1,0c0.1-0.1,0.1,0,0.1,0l-0.1,0.1
	c0.1,0,0.1,0,0.1,0.1c0,0.1,0.1,0,0,0.1c0.1,0,0.1-0.1,0.1,0c-0.1,0.1-0.1,0.1,0,0.1c0,0,0,0,0.1,0c0,0,0,0.1-0.1,0.1
	c0.1,0,0.1-0.1,0.1-0.1l-0.1,0.1c0,0.1,0,0.1,0,0.1s0.1,0,0,0.1c0.1-0.1,0,0,0.1,0s0.1,0,0.1,0h0.1c-0.1,0.1-0.1,0.1-0.1,0.1
	c0.1,0,0,0.1,0,0.1c0.1,0,0.1,0,0.1,0C5.9,17,5.9,17,5.9,17H6C5.9,17,6,17,6,17c0,0.1,0,0.1,0.1,0.1c0.1,0,0.1,0.1,0.1,0.1
	c0.1,0,0.1,0,0.1,0c0,0,0,0,0,0c0,0,0,0.1,0,0c0,0,0,0,0,0c0.1,0,0.1,0,0.1,0c0,0.1,0.1,0.1,0.1,0.1c0,0,0.1-0.1,0.1,0
	c-0.1,0.1,0,0.1,0,0.1l0.1,0.1c0,0,0,0.1,0.1,0.1c0,0.1,0,0.1,0,0.1l0.1,0.1c0.1,0.1,0.1,0.1,0.1,0.1L6.7,18
	c0.1,0.1,0.2,0.3,0.3,0.4c0.1,0.1,0.2,0.2,0.3,0.3c0.1,0.1,0.1,0.1,0.2,0.2c0,0.1,0.1,0.1,0.1,0.2c0.1,0.1,0.1,0.1,0.1,0.2
	c0.1,0.2,0.2,0.3,0.3,0.5c0.1,0.1,0.1,0.2,0.1,0.3c0.1,0,0.1,0.1,0.1,0.1c0,0.1,0,0.1-0.1,0.1c-0.1,0.1-0.1,0.1,0.1,0
	c0.1-0.1,0.3-0.1,0.3-0.2c0.1-0.1,0.1-0.1,0.1-0.1c0.1-0.1,0.1-0.1,0.1-0.2v0c0,0,0.1,0,0.1,0h0c0,0,0,0-0.1,0v-0.1h0c0,0,0,0,0,0
	c0,0,0,0.1,0,0.1c0,0,0,0,0.1,0c0,0,0,0,0.1,0c0.1,0.1,0.1,0.1,0.1,0.1c0.1,0,0.1,0.1,0.2,0.1c0.1,0,0.1-0.1,0.2-0.1
	c0.1,0,0.2-0.1,0.3-0.1c0.1-0.1,0.1-0.1,0.1-0.2c0.1-0.1,0.1-0.1,0.2-0.2c0-0.1,0-0.1,0.1-0.1c0.1,0,0.1-0.1,0.2-0.1s0.1,0,0.1,0
	c0.1-0.1,0.3-0.1,0.3-0.3c0.1,0,0.1-0.1,0.1-0.1c0.1,0,0.1-0.1,0.1-0.1c0.1,0,0.1-0.1,0.2-0.1c0-0.1,0.1-0.1,0.1-0.1l0.1-0.1
	c0.1-0.1,0.1-0.1,0.1-0.2c0.1-0.1,0.1-0.2,0.1-0.2c0,0,0-0.1,0.1-0.1c0.1,0,0-0.1,0.1-0.1c0-0.1,0-0.1,0.1-0.1
	c0.1-0.1,0.1-0.1,0.1-0.2c0-0.1,0.1-0.1,0.1-0.1c0-0.1,0.1-0.1,0.1-0.2c0-0.1,0.1-0.1,0.1-0.2v-0.1c0-0.1,0.1-0.1,0.1-0.2
	c0-0.1,0.1-0.1,0.1-0.2c0.1-0.1,0.1-0.1,0.1-0.1c0.1,0,0.1-0.1,0.1-0.1c0-0.1,0.1-0.1,0.1-0.1c0-0.1,0.1-0.1,0.1-0.1l0.1-0.1
	c0-0.1,0.1,0,0.1-0.1c0-0.1,0-0.1,0-0.1c0.1,0,0.1-0.1,0.1-0.1c0.1,0,0-0.1,0.1-0.1c0.1,0,0.1-0.1,0.1-0.1l0.1-0.1h0.1
	c0,0,0.1,0,0.1-0.1v-0.1c0.1,0,0.1-0.1,0.1-0.1c0,0,0-0.1,0.1-0.1c0.1,0,0.1-0.1,0.1-0.1C13.6,15.1,13.6,15,13.6,14.9z M5.3,15
	C5.4,14.9,5.4,14.9,5.3,15C5.4,14.9,5.4,15,5.3,15z M5.9,14.3C5.9,14.3,5.9,14.3,5.9,14.3c0-0.1,0-0.1,0-0.1
	C5.9,14.2,5.9,14.2,5.9,14.3C6,14.3,5.9,14.3,5.9,14.3z M13.1,14.8L13.1,14.8l-0.1-0.1c0.1-0.1,0-0.1,0-0.1c0-0.1,0,0,0.1,0
	C13.1,14.6,13.1,14.6,13.1,14.8C13.1,14.7,13.1,14.7,13.1,14.8z M5.9,16.9C5.9,16.9,5.8,16.9,5.9,16.9L5.9,16.9z M11.7,15.3
	C11.7,15.3,11.8,15.4,11.7,15.3C11.8,15.3,11.8,15.3,11.7,15.3z M11.9,14.6L11.9,14.6C11.9,14.6,11.9,14.7,11.9,14.6z M13.6,16.4
	L13.6,16.4C13.6,16.4,13.6,16.4,13.6,16.4z M13.6,16.3L13.6,16.3L13.6,16.3L13.6,16.3z"/>
</svg>
