<?xml version="1.0" encoding="utf-8"?>
<!-- Generator: Adobe Illustrator 24.1.3, SVG Export Plug-In . SVG Version: 6.00 Build 0)  -->
<svg version="1.1" id="Слой_1" xmlns="http://www.w3.org/2000/svg" xmlns:xlink="http://www.w3.org/1999/xlink" x="0px" y="0px"
	 viewBox="0 0 137 132" enable-background="new 0 0 137 132" xml:space="preserve">
<g>
	<defs>
		<rect id="SVGID_1_" y="0" width="137" height="132"/>
	</defs>
	<clipPath id="SVGID_2_">
		<use xlink:href="#SVGID_1_"  overflow="visible"/>
	</clipPath>
	<g clip-path="url(#SVGID_2_)">
		<path fill="#51A66D" d="M134.3,41L77.6,79.7l-1.7,1.1c-4.5,3-10.4,3-14.8,0l-1.7-1.1L2.7,41c1-1.5,2.3-2.7,3.8-3.7L59.2,3.3
			c5.6-3.8,13-3.8,18.6,0.1l52.7,34.1C131.9,38.4,133.2,39.6,134.3,41z"/>
		<g>
			<defs>
				<rect id="SVGID_3_" x="55.1" y="7.2" transform="matrix(0.866 -0.5 0.5 0.866 -8.6407 53.0548)" width="79.1" height="70.9"/>
			</defs>
			<clipPath id="SVGID_4_">
				<use xlink:href="#SVGID_3_"  overflow="visible"/>
			</clipPath>
			<g clip-path="url(#SVGID_4_)">
				<path fill-rule="evenodd" clip-rule="evenodd" fill="#FFDA44" d="M81.8,27.2c5,5.7,4.5,14.4-1.3,19.5c-5.7,5-14.4,4.5-19.5-1.3
					c-5-5.6-4.4-14.4,1.3-19.4C68.1,21,76.8,21.5,81.8,27.2z"/>
				<path fill-rule="evenodd" clip-rule="evenodd" fill="#EF0B00" d="M82.1,32.8c3.7,4.1,3.2,10.4-0.9,14.1
					c-4.1,3.7-10.4,3.2-14.1-0.9c-3.7-4.1-3.2-10.4,0.9-14.1C72.2,28.4,78.5,28.8,82.1,32.8z"/>
				<path fill-rule="evenodd" clip-rule="evenodd" fill="#FFDA44" d="M74.9,45c-1.1-1.2-1-3.2,0.2-4.4c1.2-1.1,3.2-1,4.4,0.2
					c1.1,1.2,1,3.2-0.2,4.4C78.1,46.4,76.1,46.2,74.9,45z"/>
				<path fill-rule="evenodd" clip-rule="evenodd" fill="#FFDA44" d="M110.9,19.7c-2,7.3-9.6,11.6-17,9.5c-7.3-2-11.5-9.6-9.5-17
					c2-7.3,9.6-11.5,17-9.5C108.7,4.7,112.9,12.3,110.9,19.7z"/>
				<path fill-rule="evenodd" clip-rule="evenodd" fill="#EF0B00" d="M106.3,22.9c-1.5,5.2-6.9,8.4-12.3,6.9
					c-5.2-1.5-8.3-7-6.8-12.2c1.5-5.2,6.9-8.4,12.3-6.9C104.7,12.2,107.8,17.7,106.3,22.9z"/>
				<path fill-rule="evenodd" clip-rule="evenodd" fill="#FFDA44" d="M92.4,23.5c0.5-1.7,2.2-2.6,3.8-2.2c1.7,0.5,2.6,2.2,2.2,3.8
					c-0.5,1.7-2.2,2.6-3.8,2.2C92.9,26.9,91.9,25.1,92.4,23.5z"/>
				<path fill-rule="evenodd" clip-rule="evenodd" fill="#FFDA44" d="M76.3,88.9c0,0,4.9-10.9,7.4-19.7c4.9-17.5-0.5-22-0.4-22.2
					l1.1-2.6c0,0,5.1,8.4,0.9,23.5C85,69.1,78.1,90,78.1,90L76.3,88.9z"/>
				<path fill-rule="evenodd" clip-rule="evenodd" fill="#FFDA44" d="M93.2,31.5l-7.8,29.8l1,2.5l9-31.7L93.2,31.5z"/>
				<path fill-rule="evenodd" clip-rule="evenodd" fill="#FFDA44" d="M78,89.6c0,0,3.3-11.5,7-19.9c7.5-16.5,14.4-16.6,14.5-16.8
					l0.7-2.8c0,0-9.3,3.2-15.7,17.5c-0.6,1.2-8.6,21.6-8.6,21.6L78,89.6z"/>
				<path fill-rule="evenodd" clip-rule="evenodd" fill="#FFDA44" d="M115.5,62.4c-6.7,3.5-15.1,0.7-18.5-6.1
					c-3.5-6.7-0.7-15.1,6.1-18.5c6.7-3.5,15.1-0.7,18.5,6.1C125.1,50.7,122.4,58.9,115.5,62.4z"/>
				<path fill-rule="evenodd" clip-rule="evenodd" fill="#EF0B00" d="M110.1,61.2c-4.8,2.5-10.9,0.5-13.3-4.4
					c-2.5-4.8-0.5-10.9,4.4-13.3c4.8-2.5,10.9-0.5,13.3,4.4C116.8,52.8,114.9,58.7,110.1,61.2z"/>
				<path fill-rule="evenodd" clip-rule="evenodd" fill="#FFDA44" d="M100.1,51.2c1.6-0.8,3.4-0.2,4.1,1.4c0.8,1.6,0.2,3.4-1.4,4.1
					c-1.6,0.8-3.4,0.2-4.1-1.4C98,53.9,98.6,52,100.1,51.2z"/>
				<path fill-rule="evenodd" clip-rule="evenodd" fill="#FFDA44" d="M92.8,48.5c0,0,6.6-10,12.7-16.8
					c12.2-13.4,18.7-11.4,18.9-11.6l1.6-2.4c0,0-9.8,0.1-20.2,11.8c-0.9,1.1-14.8,18-14.8,18L92.8,48.5z"/>
				<path fill-rule="evenodd" clip-rule="evenodd" fill="#FFDA44" d="M80.7,91.7c0,0,8.7-18.2,11.4-13.4
					C96.3,82,86.8,82.4,80.7,91.7z"/>
				<path fill-rule="evenodd" clip-rule="evenodd" fill="#FFDA44" d="M82.7,85.9c0,0,2-16.3,10.1-20.5s9.5,5.1,9.5,5.1
					s-3.5-6.8-9.2-2.6C87.5,72.2,82.7,85.9,82.7,85.9z"/>
				<path fill-rule="evenodd" clip-rule="evenodd" fill="#FFDA44" d="M104,33.8c0,0,12.5-10.4,21.4-8c8.8,2.5,3.4,10.2,3.4,10.2
					s2.2-7.4-5-8.2C117,27.1,104,33.8,104,33.8z"/>
				<path fill-rule="evenodd" clip-rule="evenodd" fill="#FFDA44" d="M106.1,37.5c0,0,8.8-7.4,15.2-5.7c6.3,1.8,2.5,7.3,2.5,7.3
					s1.5-5.2-3.5-5.8C115.2,32.6,106.1,37.5,106.1,37.5z"/>
			</g>
		</g>
		<path fill="#D80027" d="M59.4,79.8L3.3,126.5c-2.1-2.6-3.3-5.8-3.3-9.1v-68c0-3,1-5.9,2.7-8.3L59.4,79.8z"/>
		<path fill="#D80027" d="M137,49.3v68c0,3.3-1.2,6.6-3.4,9.1L77.6,79.7L134.3,41C136.1,43.4,137,46.3,137,49.3z"/>
		<path fill="#EF0B00" d="M133.6,126.5c-2.7,3.3-6.7,5.1-10.9,5.1H14.3c-4.2,0-8.2-1.9-11-5.1l56.1-46.7l1.7,1.1
			c4.5,3,10.4,3,14.8,0l1.7-1.1L133.6,126.5z"/>
	</g>
</g>
</svg>
