<?xml version="1.0" encoding="utf-8"?>
<!-- Generator: Adobe Illustrator 24.1.3, SVG Export Plug-In . SVG Version: 6.00 Build 0)  -->
<svg version="1.1" id="Слой_1" xmlns="http://www.w3.org/2000/svg" xmlns:xlink="http://www.w3.org/1999/xlink" x="0px" y="0px"
	 viewBox="0 0 24 24" enable-background="new 0 0 24 24" xml:space="preserve">
<path fill="#BF6B6B" d="M22.9,12.4v-0.6c0-1.1-0.2-2.2-0.4-3.2c0.2,0.4,0.3,0.8,0.4,1.3c0.1,0.3,0.2,0.7,0.2,1c0,0.2,0.1,0.5,0,0.7
	c0,0,0.1,0.1,0.2,0.2c0.2-0.4,0.2-0.7,0.2-1.2c0-0.3-0.2-0.7-0.1-1.1c0.1-0.5-0.1-0.8-0.2-1.2c-0.1-0.3-0.2-0.7-0.4-1
	c-0.1-0.3-0.3-0.6-0.5-0.9c-0.2-0.4-0.5-0.9-1-1.2c-0.4-0.2-0.7-0.5-1-0.8s-0.6-0.6-0.8-0.9C18.9,2.7,18,2,17,1.5l-1-0.4
	c-0.3-0.2-0.6-0.2-1-0.4C14.1,0.2,13,0,11.9,0c-0.5,0-0.9,0.2-1.4,0.2c-0.1,0-0.2,0.1-0.4,0.1C6.6,0.8,3.5,3,1.8,6
	C1.6,6,1.6,6.1,1.6,6.2C1.4,6.6,1.3,6.9,1.1,7.3c-0.2,0.5-0.4,1-0.5,1.5c0,0,0-0.1,0-0.1c0,0.2-0.1,0.6-0.2,0.8c0,0.1,0,0.2,0,0.3
	c0,0.2-0.1,0.4-0.1,0.5c0,0,0,0,0,0c0,0,0,0,0,0c-0.1,0.4-0.1,0.9-0.1,1.3c0,0,0,0,0-0.1C0,11.6,0,11.7,0,11.7c0,1.2,0,2.3,0.4,3.5
	c0.3,1.1,0.9,2.1,1.5,3.1c0.2,0.3,0.5,0.6,0.7,0.9c0.2,0.3,0.5,0.6,0.7,0.9c0.2,0.2,0.5,0.7,0.7,1c0.2,0.3,0.6,0.7,0.9,0.9
	c1.4,1,3,1.2,4.5,1.8C9.8,24,10.3,24,10.7,24h0.6c0.2,0,0.4-0.1,0.6-0.1c1.3-0.2,2.6-0.5,3.7-1.1c0.3-0.1,0.6-0.2,0.8-0.4
	c0.3-0.2,0.6-0.3,0.8-0.5c0.6-0.3,1.1-0.7,1.8-1.1c0.3-0.2,0.6-0.4,0.9-0.7c0.2-0.3,0.6-0.6,0.8-0.8c0.7-0.7,1.3-1.5,1.8-2.4
	c-0.3,0.4-0.7,0.8-1.1,1.2c-0.5,0.7-1.1,1.3-1.8,1.8c1.6-1.7,2.7-3.8,3.1-6.3v0.1c0.2,0.6-0.1,1.1,0.1,1.6c0.2,0.7-0.1,1.2-0.3,1.6
	c0.1-0.2,0.3-0.5,0.4-0.7c0.5-1.1,0.4-2.5,0.6-3.6c0.3-0.2,0.2-0.6,0.5-0.8C23.7,12,23.2,12.1,22.9,12.4z M0.4,14.3
	c0-0.4-0.1-0.7-0.2-0.9c-0.1-0.2-0.1-0.5,0-0.8v-0.1c0.1,1,0.2,1.9,0.5,2.8C0.6,15,0.4,14.6,0.4,14.3z M0.9,15.7
	C1,15.8,1,15.9,1,15.9C1,15.8,0.9,15.8,0.9,15.7z M4.3,20.7c0.3,0.1,0.5,0.4,0.8,0.6C4.8,21.2,4.4,21.2,4.3,20.7z M6.2,22.1
	c-0.4,0.2-0.5-0.1-0.6-0.4c-0.1-0.1-0.2-0.2-0.2-0.2c0.3,0.2,0.6,0.4,0.9,0.6C6.3,22.1,6.2,22.1,6.2,22.1z M7,22.5
	c-0.2-0.1-0.3-0.2-0.4-0.3c0.3,0.1,0.5,0.3,0.8,0.4C7.3,22.6,7.1,22.5,7,22.5z M11.8,23.4h-1.1c-0.4-0.1-0.8-0.2-1.1-0.2
	c-0.1,0-0.1-0.1-0.2-0.1c0.8,0.2,1.5,0.2,2.3,0.2h0.7C12.1,23.3,12,23.4,11.8,23.4z M22.5,16.9C22.5,16.9,22.5,16.9,22.5,16.9
	C22.5,16.9,22.5,16.9,22.5,16.9C22.5,16.9,22.5,16.9,22.5,16.9z"/>
<path fill="#FFFFFF" d="M16.2,7.7c0.1,0-0.1-0.1-0.2-0.2c-0.1,0,0.2-0.1,0.1-0.1c-0.3-0.1-0.3-0.2-0.3-0.2s-0.3-0.1,0-0.2
	c0.2,0,0,0-0.1,0c0,0-0.2,0-0.1-0.1c0.2,0-0.1-0.1-0.1-0.1c0.1-0.1-0.6-0.1-1.1-0.1c-0.6,0-0.7,0-0.6,0.1c0,0,0,0-0.1,0
	c-0.6,0.1-0.5,0.1-0.2,0.2c0.2,0,0.2,0.1,0,0.1s-0.2,0,0,0.1c0.4,0,0.2,0.1,0,0.1c-0.3,0-0.2,0.1-0.2,0.1s0,0,0,0.1s0,0.2,0.1,0.2
	l0.2,0.1c0.2,0.1,0.1,0.1-0.1,0.2c-0.2,0.1,0.5,0,0.4,0c-0.2,0.1-0.3,0.2-0.3,0.3s-0.4,0.1-0.3,0.2c0.2,0.2,0.1,0.3,0.1,0.5
	c0,0.1-0.3,0.2-0.2,0.3C13,9.5,13,9.5,13.1,9.7c0.1,0.1,0.1,0.2,0,0.2c-0.2,0.1-0.1,0.2,0,0.2c0.2,0.2-0.2,0.2,0,0.4
	c0.1,0.1-0.2,0.1-0.2,0.2s0.1,0.1,0,0.2s-0.2,0.2,0,0.2c0.1,0,0.2,0.1,0.1,0.1c-0.4,0.1-0.1,0.2-0.1,0.2c-0.1,0.2,0.3,0.2,0.2,0.4
	c-0.2,0.1,0.1,0.2,0,0.3c-0.1,0.2-0.1,0.3,0,0.5c0,0.1,0,0.1,0.1,0.2s0.2,0.2-0.1,0.2H13c0.1,0.2,0.2,0.3,0.2,0.4
	c0,0.2,0,0.2-0.1,0.4c0,0,0.2,0.1,0.1,0.1C13,14,13,14.1,13.1,14.1c0.1,0.1,0.2,0.1,0.2,0.2c-0.1,0.1-0.3,0.2-0.2,0.3
	c0,0.1,0.2,0.2,0,0.2C13,14.9,12.9,15,12.9,15c0,0.1,0.1,0.2,0.1,0.3s0.3,0.2,0.3,0.2c0,0.2,0.3,0.3,0.2,0.5
	c-0.2,0.2,0.3,0.2,0.2,0.4c-0.1,0.1,0.3,0.1,0.1,0.2c-0.3,0.1-0.1,0.2,0.1,0.2c0.2,0.2-0.1,0.2-0.2,0.4C13.3,17,13.5,17,14,17h1.3
	c0.2,0.2,0.3,0.2,0.4,0.2c-0.1-0.1-0.1-0.1,0-0.1c0.1-0.1,0.2-0.1,0.2-0.2c-0.2-0.2,0-0.4,0.1-0.5c0.1-0.2,0.2-0.3,0.1-0.5
	c-0.1-0.2-0.2-0.3-0.4-0.5c-0.3-0.2-0.1-0.5-0.1-0.8c0-0.2,0.5-0.3,0.2-0.5c0,0,0-0.1-0.1-0.1c-0.1-0.2,0.5-0.4,0.2-0.5
	c-0.2-0.1-0.1-0.2,0-0.3c0.1-0.2-0.2-0.5-0.1-0.7c0.1-0.1-0.1-0.2,0-0.3c0.2-0.2-0.3-0.3-0.1-0.5h-0.1c-0.1-0.1-0.3-0.2-0.1-0.3
	s0.3-0.2,0.3-0.2c-0.2-0.2-0.1-0.3,0-0.5c0-0.1,0.1-0.2,0.1-0.2c0-0.2-0.2-0.5-0.2-0.8c-0.1-0.2-0.2-0.2,0.1-0.4
	c0.2-0.1-0.1-0.2,0-0.2C16,9.2,16,9.2,16,9c-0.1-0.2,0.1-0.4,0.2-0.5c0-0.2,0-0.4,0.2-0.5C16.6,7.9,15.8,7.8,16.2,7.7z M10.2,7.7
	c0.1,0-0.1-0.1-0.2-0.2c-0.1,0,0.2-0.1,0.1-0.1c-0.4,0-0.4-0.1-0.4-0.2S9.4,7.1,9.7,7c0.3,0,0.1,0,0,0c0,0-0.2,0-0.1-0.1
	c0.2,0-0.1-0.1-0.1-0.1c0.2,0-0.5,0-1,0c-0.6,0-0.7,0-0.6,0.1c0,0,0,0-0.1,0c-0.6,0-0.5,0-0.2,0.1c0.2,0,0.2,0.1,0,0.1s-0.2,0,0,0.1
	c0.4,0,0.2,0.1,0,0.1c-0.3,0-0.2,0.1-0.2,0.1s0,0,0,0.1s0,0.2,0.1,0.2l0.2,0.1C7.9,7.9,7.8,7.9,7.6,8C7.4,8.1,8,8,7.9,8
	C7.7,8.1,7.6,8.2,7.6,8.3S7.2,8.4,7.3,8.5C7.5,8.7,7.4,8.8,7.4,9C7.3,9,7,9.2,7.2,9.2C6.9,9.4,7,9.5,7.1,9.6s0.1,0.2,0,0.2
	C6.9,9.9,7,10,7.1,10.1c0.2,0.2-0.2,0.2,0,0.4c0.1,0.1-0.2,0.1-0.2,0.2s0.1,0.1,0,0.2S6.8,11,6.9,11s0.3,0.1,0.1,0.1
	c-0.4,0.1-0.1,0.2-0.1,0.2c-0.1,0.2,0.3,0.2,0.2,0.4c-0.2,0.1,0.1,0.2,0,0.3c-0.1,0.2-0.1,0.3,0,0.5c0,0.1,0,0.1,0.1,0.2
	s0.2,0.2-0.1,0.2H7c0.1,0.2,0.2,0.3,0.2,0.4c0,0.2,0,0.2-0.1,0.4c0,0,0.2,0.1,0.1,0.1C7,13.9,7,14,7.1,14c0.1,0,0.1,0,0.1,0.1
	c-0.1,0.1-0.3,0.2-0.2,0.3c0,0.1,0.2,0.2,0,0.2c-0.1,0.1-0.2,0.2-0.2,0.2c0,0.1,0.1,0.2,0.1,0.3s0.3,0.2,0.3,0.2
	c0,0.2,0.3,0.3,0.2,0.5C7.2,16,7.6,16,7.5,16.2c-0.1,0.1,0.3,0.1,0.1,0.2c-0.3,0.1-0.1,0.2,0.1,0.2c0.2,0.2-0.1,0.2-0.2,0.4
	c-0.2,0,0,0,0.5,0h1.3c0.2,0.2,0.3,0.2,0.4,0.2c-0.1-0.1-0.1-0.1,0-0.1C9.8,17,9.9,17,9.9,17c-0.2-0.2,0-0.4,0.1-0.5
	c0.1-0.2,0.2-0.3,0.1-0.5c-0.1-0.2-0.2-0.3-0.4-0.5c-0.3-0.2-0.1-0.5-0.1-0.8c0-0.2,0.5-0.3,0.2-0.5c0,0,0-0.1-0.1-0.1
	c-0.1-0.2,0.5-0.4,0.2-0.5c-0.2-0.1-0.1-0.2,0-0.3c0.1-0.2-0.2-0.5-0.1-0.7c0.1-0.1-0.1-0.2,0-0.3c0.2-0.2-0.3-0.3-0.1-0.5h0
	c-0.1-0.1-0.3-0.2-0.1-0.3s0.3-0.2,0.3-0.2c-0.2-0.2-0.1-0.3,0-0.5c0-0.1,0.1-0.2,0.1-0.2c0-0.2-0.2-0.5-0.2-0.8
	c-0.1-0.1-0.3-0.2,0-0.3c0.2-0.1-0.1-0.2,0-0.2C10,9.2,10,9.2,10,9c-0.1-0.2,0.1-0.4,0.2-0.5c0-0.2,0-0.4,0.2-0.5
	C10.6,7.9,9.8,7.8,10.2,7.7z"/>
</svg>
